<svg width="111" height="78" viewBox="0 0 111 78" fill="none" xmlns="http://www.w3.org/2000/svg">
<path d="M28.375 34V2.00781H20.6172V14.6406H8.875V2.00781H1.11719V34H8.875V20.9219H20.6172V34H28.375ZM45.0391 34.4688C52.4688 34.4688 55.7031 29.9219 56.0781 25.9844H49.2578C48.9531 27.8359 47.2891 28.9375 45.0625 28.9375C42.4844 28.9375 40.5156 27.0391 40.5156 23.8516V23.0078H56.2422V20.5C56.2422 13.1172 51.7422 8.5 44.7578 8.5C38.1719 8.5 33.1797 12.6016 33.1797 20.3828V22.375C33.1797 30.3438 38.0078 34.4688 45.0391 34.4688ZM40.5156 18.6953V18.6719C40.5156 15.9062 42.25 13.8672 44.8281 13.8672C47.3828 13.8672 49.0469 15.9062 49.0469 18.6719V18.6953H40.5156ZM60.8359 34H68.3594V0.320312H60.8359V34ZM74.2422 34H81.7656V0.320312H74.2422V34ZM98.3359 8.5C90.7422 8.5 86.4297 13.5859 86.4297 20.6172V22.2109C86.4297 29.7812 90.7188 34.4688 98.3359 34.4688C105.93 34.4688 110.219 29.7812 110.219 22.1875V20.5703C110.219 13.5391 105.93 8.5 98.3359 8.5ZM98.3359 14.125C101.453 14.125 102.602 17.0547 102.602 20.5V22.4219C102.602 25.6797 101.523 28.8438 98.3359 28.8438C95.125 28.8438 94.0469 25.6562 94.0469 22.4219V20.5C94.0469 17.1016 95.1719 14.125 98.3359 14.125ZM0.601562 65.7969C0.601562 72.3594 4.28125 77.3984 10.8203 77.3984C16.4688 77.3984 19.5625 74.4453 20.3828 70.2266H16.4219C15.9766 72.1953 14.1719 73.8359 11.1016 73.8359C7.16406 73.8359 4.63281 70.6484 4.63281 65.8203V63.5234C4.63281 58.5547 7 55.5312 11.0781 55.5312C13.75 55.5312 15.6953 57.4297 16.2344 59.5156H20.1953C19.9844 55.7422 16.5156 51.9688 10.8203 51.9688C4.39844 51.9688 0.601562 56.7266 0.601562 63.3594V65.7969ZM26.0781 77H30.1094V62C30.1094 58.625 31.9375 55.625 36.1797 55.625C39.7891 55.625 42.2031 57.7344 42.2031 61.8828V77H46.2344V61.2031C46.2344 55.2031 42.4844 51.9688 37.3984 51.9688C33.4141 51.9688 31.1406 54.0547 30.2266 55.625H30.1094V43.3203H26.0781V77ZM59.6875 77.3984C63.3203 77.3984 65.5703 75.9219 66.8125 73.9297H66.9297V77H70.7969V60.0078C70.7969 54.8281 66.9766 51.9688 61.7266 51.9688C55.7734 51.9688 52.8438 55.1094 52.5859 59.4219H56.3828C56.6172 56.9609 58.4219 55.3438 61.5859 55.3438C64.9141 55.3438 66.7891 57.125 66.7891 60.3594V62.8672H60.2969C54.6484 62.8906 51.6484 65.6094 51.6484 69.9219C51.6484 74.4453 54.9297 77.3984 59.6875 77.3984ZM60.7656 74.0469C58.1875 74.0469 55.7734 72.6875 55.7734 69.7812C55.7734 67.5547 57.2266 65.9609 60.6016 65.9609H66.7891V68.8203C66.7891 71.8906 64.2109 74.0469 60.7656 74.0469ZM79.2578 52.3672H75.9297V55.7422H79.2344V70.1094C79.2344 74.9609 80.4297 77.2109 86.2656 77.2109C87.1094 77.2109 87.9531 77.1172 88.3047 77.0469V73.8125C87.9766 73.8594 87.6719 73.8594 87.2734 73.8594C84.25 73.8594 83.2656 73.1094 83.2656 70.1562V55.7422H88.1406V52.3672H83.2656V46.2266H79.2578V52.3672Z" fill="url(#paint0_linear_11_313)"/>
<defs>
<linearGradient id="paint0_linear_11_313" x1="-2" y1="38" x2="112" y2="38" gradientUnits="userSpaceOnUse">
<stop stop-color="#8C51A5"/>
<stop offset="1" stop-color="#CB5E98"/>
</linearGradient>
</defs>
</svg>
